<?xml version="1.0" encoding="utf-8"?>
<!-- Generator: Adobe Illustrator 16.0.4, SVG Export Plug-In . SVG Version: 6.00 Build 0)  -->
<!DOCTYPE svg PUBLIC "-//W3C//DTD SVG 1.1//EN" "http://www.w3.org/Graphics/SVG/1.1/DTD/svg11.dtd">
<svg version="1.1" id="Layer_1" xmlns="http://www.w3.org/2000/svg" xmlns:xlink="http://www.w3.org/1999/xlink" x="0px" y="0px"
	 width="24.979px" height="18.792px" viewBox="0 0 24.979 18.792" enable-background="new 0 0 24.979 18.792" xml:space="preserve">
<g>
	<path d="M24.749,2.452L22.534,0.23c-0.306-0.308-0.802-0.308-1.107,0L10.095,12.221L3.6,5.707
		c-0.31-0.311-0.812-0.311-1.123,0L0.232,7.959c-0.31,0.311-0.31,0.815,0,1.125l6.819,6.84c0.028,0.15,0.086,0.297,0.202,0.413
		l2.215,2.222c0.18,0.181,0.423,0.242,0.657,0.211c0.24,0.035,0.491-0.025,0.676-0.211l2.245-2.251
		c0.164-0.165,0.235-0.385,0.225-0.601L24.749,3.562C25.056,3.256,25.056,2.759,24.749,2.452z"/>
</g>
</svg>
